<svg width="28" height="28" viewBox="0 0 28 28" fill="none" xmlns="http://www.w3.org/2000/svg">
<path d="M12.9241 21.9022V23.014C12.9241 23.3088 12.807 23.5916 12.5985 23.8001C12.39 24.0086 12.1072 24.1257 11.8123 24.1257H9.58878V25.2375C9.58878 25.8272 9.35451 26.3928 8.93751 26.8098C8.52052 27.2268 7.95495 27.4611 7.36522 27.4611H2.91812C2.32839 27.4611 1.76283 27.2268 1.34583 26.8098C0.928831 26.3928 0.694565 25.8272 0.694565 25.2375V22.3625C0.694691 21.7728 0.92904 21.2073 1.34607 20.7904L9.95122 12.1853C9.42358 10.3936 9.47336 8.4813 10.0935 6.71952C10.7136 4.95775 11.8727 3.4359 13.4062 2.36977C14.9398 1.30365 16.7701 0.747352 18.6375 0.779767C20.505 0.812183 22.3148 1.43166 23.8105 2.55037C25.3061 3.66908 26.4116 5.23023 26.9702 7.01247C27.5288 8.79471 27.5122 10.7076 26.9227 12.4798C26.3332 14.2521 25.2008 15.7938 23.6859 16.8864C22.1711 17.9789 20.3507 18.5669 18.483 18.5669H16.2572V20.7904C16.2572 21.0853 16.1401 21.3681 15.9316 21.5765C15.7231 21.785 15.4403 21.9022 15.1454 21.9022H12.9219H12.9241ZM20.7065 9.67264C21.2963 9.67264 21.8618 9.43837 22.2788 9.02138C22.6958 8.60438 22.9301 8.03881 22.9301 7.44909C22.9301 6.85936 22.6958 6.29379 22.2788 5.8768C21.8618 5.4598 21.2963 5.22553 20.7065 5.22553C20.1168 5.22553 19.5512 5.4598 19.1343 5.8768C18.7173 6.29379 18.483 6.85936 18.483 7.44909C18.483 8.03881 18.7173 8.60438 19.1343 9.02138C19.5512 9.43837 20.1168 9.67264 20.7065 9.67264Z" fill="black"/>
</svg>
